<svg width="16" height="16" viewBox="0 0 16 16" fill="none" xmlns="http://www.w3.org/2000/svg">
<g clip-path="url(#clip0_173_377)">
<path d="M14.8168 1.18241C14.6668 1.03243 14.4633 0.948181 14.2512 0.948181C14.0391 0.948181 13.8356 1.03243 13.6856 1.18241L1.184 13.6856C1.10759 13.7594 1.04665 13.8477 1.00472 13.9453C0.962792 14.0429 0.940723 14.1479 0.9398 14.2541C0.938877 14.3603 0.959118 14.4657 0.999343 14.564C1.03957 14.6623 1.09897 14.7516 1.17408 14.8267C1.2492 14.9018 1.33852 14.9612 1.43684 15.0015C1.53515 15.0417 1.6405 15.0619 1.74672 15.061C1.85294 15.0601 1.95792 15.038 2.05552 14.9961C2.15313 14.9542 2.2414 14.8932 2.3152 14.8168L14.816 2.31361C14.966 2.16359 15.0502 1.96014 15.0502 1.74801C15.0502 1.53588 14.9668 1.33243 14.8168 1.18241ZM2.4864 10.7984L4.5344 8.75041C4.47614 8.50447 4.44581 8.25275 4.444 8.00001C4.444 6.09681 6.036 4.55281 8 4.55281C8.2288 4.55281 8.4512 4.57841 8.668 4.61841L9.6304 3.65681C9.09135 3.56873 8.5462 3.52326 8 3.52081C2.752 3.52001 0 7.38481 0 8.00001C0 8.33841 0.8456 9.67281 2.4864 10.7984ZM13.516 5.20401L11.4664 7.25201C11.5216 7.49361 11.5552 7.74241 11.5552 8.00001C11.5552 9.90321 9.964 11.4456 8 11.4456C7.7728 11.4456 7.552 11.42 7.3368 11.3808L6.3736 12.3432C6.8872 12.4264 7.4264 12.4792 8 12.4792C13.248 12.4792 16 8.61281 16 8.00001C16 7.66081 15.1552 6.32801 13.516 5.20401Z" fill="#BAD2CA"/>
</g>
<defs>
<clipPath id="clip0_173_377">
<rect width="16" height="16" fill="white"/>
</clipPath>
</defs>
</svg>
