<svg width="120" height="26" viewBox="0 0 120 26" fill="none" xmlns="http://www.w3.org/2000/svg">
<path d="M14.56 20.056C12.936 20.056 12.0587 19.7947 11.928 19.272L11.004 15.66H6.552L5.74 19.132C5.628 19.7107 4.732 20 3.052 20C2.156 20 1.49333 19.9533 1.064 19.86C0.634667 19.748 0.42 19.664 0.42 19.608L5.376 0.651999C5.376 0.502665 6.65467 0.427998 9.212 0.427998C11.7693 0.427998 13.048 0.502665 13.048 0.651999L17.892 19.636C17.892 19.7667 17.4627 19.8693 16.604 19.944C15.7453 20.0187 15.064 20.056 14.56 20.056ZM7.252 12.104H10.192L8.932 6.308H8.764L7.252 12.104ZM24.7597 20C22.949 20 21.549 19.4213 20.5597 18.264C19.5703 17.088 19.0757 15.3613 19.0757 13.084C19.0757 10.788 19.7197 8.996 21.0077 7.708C22.3143 6.40133 24.041 5.748 26.1877 5.748C28.353 5.748 30.1357 6.224 31.5357 7.176V21.12C31.5357 22.5013 30.9757 23.556 29.8557 24.284C28.7357 25.0307 27.2983 25.404 25.5437 25.404C23.789 25.404 22.221 25.18 20.8397 24.732C20.653 24.284 20.5597 23.8827 20.5597 23.528C20.5597 22.3333 20.7557 21.456 21.1477 20.896C22.3983 21.4373 23.733 21.708 25.1517 21.708C26.1783 21.708 26.6917 21.344 26.6917 20.616V19.776C25.889 19.9253 25.245 20 24.7597 20ZM26.0477 10.312C24.797 10.312 24.1717 11.2547 24.1717 13.14C24.1717 14.316 24.4143 15.0813 24.8997 15.436C25.217 15.6787 25.5343 15.8 25.8517 15.8C26.169 15.8 26.449 15.772 26.6917 15.716V10.396C26.4677 10.34 26.253 10.312 26.0477 10.312ZM40.1772 19.972C40.1772 20.1027 39.3278 20.168 37.6292 20.168C35.9305 20.1307 35.0812 20.056 35.0812 19.944V10.648H34.3252C34.0265 10.648 33.7838 10.4707 33.5972 10.116C33.4292 9.74267 33.3452 9.28533 33.3452 8.744C33.3452 6.728 33.9425 5.72 35.1372 5.72C35.9772 5.72 36.6772 5.98133 37.2372 6.504C37.7972 7.008 38.0772 7.58667 38.0772 8.24C38.4692 7.47467 38.9918 6.868 39.6452 6.42C40.3172 5.95333 40.9985 5.72 41.6892 5.72C42.7718 5.72 43.4252 6 43.6492 6.56C43.7052 6.70933 43.7332 6.93333 43.7332 7.232C43.7332 7.512 43.6398 8.02533 43.4532 8.772C43.2852 9.51867 43.1078 10.06 42.9212 10.396C42.7345 10.732 42.6225 10.9 42.5852 10.9C42.5478 10.9 42.3705 10.8347 42.0532 10.704C41.7545 10.5547 41.4838 10.48 41.2412 10.48C40.5318 10.48 40.1772 11.04 40.1772 12.16V19.972ZM50.2707 19.832C50.2707 19.9813 49.4121 20.056 47.6947 20.056C45.9961 20.056 45.1467 19.9907 45.1467 19.86V6.112C45.1467 5.98133 45.9961 5.916 47.6947 5.916C49.4121 5.916 50.2707 5.972 50.2707 6.084V19.832ZM50.2707 4.432C50.2707 4.56267 49.4121 4.628 47.6947 4.628C45.9961 4.628 45.1467 4.572 45.1467 4.46V0.427998C45.1467 0.241332 45.9961 0.147999 47.6947 0.147999C49.4121 0.147999 50.2707 0.203999 50.2707 0.316V4.432ZM66.691 5.468C66.691 7.40933 65.851 8.884 64.171 9.892C65.0856 10.228 65.851 10.8067 66.467 11.628C67.083 12.4493 67.391 13.616 67.391 15.128C67.391 16.6213 66.831 17.8067 65.711 18.684C64.6096 19.5613 63.023 20 60.951 20H54.343C54.0256 20 53.7643 19.8973 53.559 19.692C53.3536 19.468 53.251 19.1787 53.251 18.824V0.903999C53.251 0.698666 53.279 0.567999 53.335 0.511999C53.4096 0.437332 53.5496 0.399999 53.755 0.399999H60.139C64.507 0.399999 66.691 2.08933 66.691 5.468ZM58.627 4.936V8.604H58.767C60.559 8.604 61.455 8.00667 61.455 6.812C61.455 6.15867 61.2776 5.68267 60.923 5.384C60.587 5.08533 60.0176 4.936 59.215 4.936H58.627ZM58.627 11.908V15.548H59.131C59.9336 15.548 60.5216 15.3987 60.895 15.1C61.2683 14.8013 61.455 14.3253 61.455 13.672C61.455 13.0187 61.2776 12.5613 60.923 12.3C60.587 12.0387 60.0176 11.908 59.215 11.908H58.627ZM70.632 18.348C69.4746 17.06 68.896 15.2773 68.896 13C68.896 10.7227 69.4746 8.94 70.632 7.652C71.808 6.364 73.3853 5.72 75.364 5.72C77.3426 5.72 78.9106 6.364 80.068 7.652C81.2253 8.94 81.804 10.7227 81.804 13C81.804 15.2773 81.2253 17.06 80.068 18.348C78.9106 19.636 77.3426 20.28 75.364 20.28C73.3853 20.28 71.808 19.636 70.632 18.348ZM75.364 10.396C74.3186 10.396 73.796 11.2547 73.796 12.972C73.796 14.6893 74.3186 15.548 75.364 15.548C76.428 15.548 76.96 14.6893 76.96 12.972C76.96 11.2547 76.428 10.396 75.364 10.396ZM84.9874 18.348C83.8301 17.06 83.2514 15.2773 83.2514 13C83.2514 10.7227 83.8301 8.94 84.9874 7.652C86.1634 6.364 87.7408 5.72 89.7194 5.72C91.6981 5.72 93.2661 6.364 94.4234 7.652C95.5808 8.94 96.1594 10.7227 96.1594 13C96.1594 15.2773 95.5808 17.06 94.4234 18.348C93.2661 19.636 91.6981 20.28 89.7194 20.28C87.7408 20.28 86.1634 19.636 84.9874 18.348ZM89.7194 10.396C88.6741 10.396 88.1514 11.2547 88.1514 12.972C88.1514 14.6893 88.6741 15.548 89.7194 15.548C90.7834 15.548 91.3154 14.6893 91.3154 12.972C91.3154 11.2547 90.7834 10.396 89.7194 10.396ZM98.7269 14.96C100.239 15.8747 101.434 16.332 102.311 16.332C102.871 16.332 103.151 16.136 103.151 15.744C103.151 15.464 102.666 15.1 101.695 14.652C99.3616 13.7 98.1949 12.1413 98.1949 9.976C98.1949 8.59467 98.6989 7.54 99.7069 6.812C100.715 6.084 101.919 5.72 103.319 5.72C104.738 5.72 105.932 5.86933 106.903 6.168C107.892 6.46667 108.387 6.85867 108.387 7.344C108.387 7.75467 108.182 8.296 107.771 8.968C107.379 9.64 107.108 10.004 106.959 10.06C106.156 9.612 105.288 9.388 104.355 9.388C103.851 9.388 103.599 9.56533 103.599 9.92C103.599 10.144 103.692 10.34 103.879 10.508C104.084 10.6573 104.448 10.8533 104.971 11.096C105.494 11.32 105.923 11.5253 106.259 11.712C106.614 11.8987 107.006 12.16 107.435 12.496C108.331 13.2053 108.779 14.1293 108.779 15.268C108.779 16.7613 108.284 17.9747 107.295 18.908C106.306 19.8227 104.812 20.28 102.815 20.28C101.49 20.28 100.286 20.056 99.2029 19.608C98.1202 19.16 97.5789 18.544 97.5789 17.76C97.5789 17.2373 97.7002 16.6867 97.9429 16.108C98.2042 15.5293 98.4656 15.1467 98.7269 14.96ZM117.184 19.832C117.184 20.056 116.4 20.168 114.832 20.168C112.966 20.0933 112.032 19.972 112.032 19.804V9.892H110.604C110.231 9.892 110.044 9.248 110.044 7.96C110.044 7.624 110.072 7.21333 110.128 6.728C110.203 6.24267 110.343 6 110.548 6H112.032V3.536C112.032 3.16267 112.816 2.976 114.384 2.976C115.971 2.976 116.764 3.12533 116.764 3.424V5.216L116.792 6H119.172C119.49 6 119.648 6.65333 119.648 7.96C119.648 9.26667 119.49 9.92 119.172 9.92H117.184V19.832Z" fill="#216E54"/>
</svg>
