<svg width="114" height="24" viewBox="0 0 114 24" fill="none" xmlns="http://www.w3.org/2000/svg">
<path d="M19.2572 14.9128C18.358 15.4594 17.3254 15.7468 16.2731 15.7434C15.3916 15.7365 14.5201 15.5562 13.7081 15.2128C13.0824 16.0962 12.7475 17.1527 12.75 18.2353V21C12.7502 21.1028 12.7293 21.2046 12.6886 21.299C12.6478 21.3934 12.5881 21.4784 12.5131 21.5487C12.4381 21.619 12.3494 21.6732 12.2526 21.7078C12.1558 21.7425 12.0529 21.7568 11.9503 21.75C11.7575 21.7332 11.5782 21.6442 11.4484 21.5007C11.3185 21.3573 11.2476 21.1701 11.25 20.9766V19.8103L7.62938 16.1897C7.09116 16.3905 6.52194 16.4955 5.9475 16.5C5.15668 16.5021 4.38066 16.2857 3.705 15.8747C1.66219 14.6334 0.562504 11.7769 0.775317 8.23031C0.786032 8.04683 0.863748 7.87367 0.993711 7.74371C1.12367 7.61374 1.29683 7.53603 1.48032 7.52531C5.02688 7.31625 7.88344 8.41219 9.12094 10.455C9.60714 11.2557 9.8194 12.1929 9.72563 13.125C9.7198 13.1972 9.69318 13.2662 9.64898 13.3236C9.60478 13.381 9.5449 13.4244 9.47657 13.4485C9.40825 13.4726 9.33441 13.4764 9.26397 13.4594C9.19354 13.4424 9.12953 13.4054 9.07969 13.3528L7.27969 11.4684C7.1379 11.3337 6.94908 11.2597 6.75351 11.2622C6.55794 11.2647 6.37108 11.3435 6.23278 11.4818C6.09448 11.6201 6.01568 11.807 6.01317 12.0026C6.01067 12.1981 6.08466 12.387 6.21938 12.5288L11.2706 17.7084C11.2763 17.6353 11.2828 17.5622 11.2903 17.49C11.4543 16.0995 12.0679 14.8005 13.0378 13.7906L17.7806 8.77875C17.9214 8.63814 18.0005 8.44739 18.0006 8.24846C18.0006 8.04952 17.9217 7.8587 17.7811 7.71797C17.6405 7.57724 17.4497 7.49813 17.2508 7.49804C17.0519 7.49795 16.861 7.57689 16.7203 7.7175L12.1266 12.5756C12.0806 12.6243 12.0224 12.6598 11.9581 12.6784C11.8937 12.697 11.8255 12.6981 11.7607 12.6814C11.6958 12.6648 11.6366 12.631 11.5891 12.5838C11.5417 12.5365 11.5078 12.4773 11.4909 12.4125C11.0466 10.7737 11.2425 9.1425 12.0909 7.74188C13.7653 4.97813 17.6616 3.49875 22.5141 3.78375C22.6975 3.79447 22.8707 3.87218 23.0007 4.00214C23.1306 4.13211 23.2083 4.30527 23.2191 4.48875C23.5003 9.34219 22.0209 13.2384 19.2572 14.9128Z" fill="white"/>
<path d="M38.4 19.54C37.24 19.54 36.6133 19.3533 36.52 18.98L35.86 16.4H32.68L32.1 18.88C32.02 19.2933 31.38 19.5 30.18 19.5C29.54 19.5 29.0667 19.4667 28.76 19.4C28.4533 19.32 28.3 19.26 28.3 19.22L31.84 5.68C31.84 5.57333 32.7533 5.52 34.58 5.52C36.4067 5.52 37.32 5.57333 37.32 5.68L40.78 19.24C40.78 19.3333 40.4733 19.4067 39.86 19.46C39.2467 19.5133 38.76 19.54 38.4 19.54ZM33.18 13.86H35.28L34.38 9.72H34.26L33.18 13.86ZM45.6855 19.5C44.3921 19.5 43.3921 19.0867 42.6855 18.26C41.9788 17.42 41.6255 16.1867 41.6255 14.56C41.6255 12.92 42.0855 11.64 43.0055 10.72C43.9388 9.78667 45.1721 9.32 46.7055 9.32C48.2521 9.32 49.5255 9.66 50.5255 10.34V20.3C50.5255 21.2867 50.1255 22.04 49.3255 22.56C48.5255 23.0933 47.4988 23.36 46.2455 23.36C44.9921 23.36 43.8721 23.2 42.8855 22.88C42.7521 22.56 42.6855 22.2733 42.6855 22.02C42.6855 21.1667 42.8255 20.54 43.1055 20.14C43.9988 20.5267 44.9521 20.72 45.9655 20.72C46.6988 20.72 47.0655 20.46 47.0655 19.94V19.34C46.4921 19.4467 46.0321 19.5 45.6855 19.5ZM46.6055 12.58C45.7121 12.58 45.2655 13.2533 45.2655 14.6C45.2655 15.44 45.4388 15.9867 45.7855 16.24C46.0121 16.4133 46.2388 16.5 46.4655 16.5C46.6921 16.5 46.8921 16.48 47.0655 16.44V12.64C46.9055 12.6 46.7521 12.58 46.6055 12.58ZM56.698 19.48C56.698 19.5733 56.0913 19.62 54.878 19.62C53.6646 19.5933 53.058 19.54 53.058 19.46V12.82H52.518C52.3046 12.82 52.1313 12.6933 51.998 12.44C51.878 12.1733 51.818 11.8467 51.818 11.46C51.818 10.02 52.2446 9.3 53.098 9.3C53.698 9.3 54.198 9.48667 54.598 9.86C54.998 10.22 55.198 10.6333 55.198 11.1C55.478 10.5533 55.8513 10.12 56.318 9.8C56.798 9.46667 57.2846 9.3 57.778 9.3C58.5513 9.3 59.018 9.5 59.178 9.9C59.218 10.0067 59.238 10.1667 59.238 10.38C59.238 10.58 59.1713 10.9467 59.038 11.48C58.918 12.0133 58.7913 12.4 58.658 12.64C58.5246 12.88 58.4446 13 58.418 13C58.3913 13 58.2646 12.9533 58.038 12.86C57.8246 12.7533 57.6313 12.7 57.458 12.7C56.9513 12.7 56.698 13.1 56.698 13.9V19.48ZM63.9077 19.38C63.9077 19.4867 63.2943 19.54 62.0677 19.54C60.8543 19.54 60.2477 19.4933 60.2477 19.4V9.58C60.2477 9.48667 60.8543 9.44 62.0677 9.44C63.2943 9.44 63.9077 9.48 63.9077 9.56V19.38ZM63.9077 8.38C63.9077 8.47333 63.2943 8.52 62.0677 8.52C60.8543 8.52 60.2477 8.48 60.2477 8.4V5.52C60.2477 5.38667 60.8543 5.32 62.0677 5.32C63.2943 5.32 63.9077 5.36 63.9077 5.44V8.38ZM75.6364 9.12C75.6364 10.5067 75.0364 11.56 73.8364 12.28C74.4897 12.52 75.0364 12.9333 75.4764 13.52C75.9164 14.1067 76.1364 14.94 76.1364 16.02C76.1364 17.0867 75.7364 17.9333 74.9364 18.56C74.1497 19.1867 73.0164 19.5 71.5364 19.5H66.8164C66.5897 19.5 66.4031 19.4267 66.2564 19.28C66.1097 19.12 66.0364 18.9133 66.0364 18.66V5.86C66.0364 5.71333 66.0564 5.62 66.0964 5.58C66.1497 5.52667 66.2497 5.5 66.3964 5.5H70.9564C74.0764 5.5 75.6364 6.70667 75.6364 9.12ZM69.8764 8.74V11.36H69.9764C71.2564 11.36 71.8964 10.9333 71.8964 10.08C71.8964 9.61333 71.7697 9.27333 71.5164 9.06C71.2764 8.84667 70.8697 8.74 70.2964 8.74H69.8764ZM69.8764 13.72V16.32H70.2364C70.8097 16.32 71.2297 16.2133 71.4964 16C71.7631 15.7867 71.8964 15.4467 71.8964 14.98C71.8964 14.5133 71.7697 14.1867 71.5164 14C71.2764 13.8133 70.8697 13.72 70.2964 13.72H69.8764ZM78.4514 18.32C77.6247 17.4 77.2114 16.1267 77.2114 14.5C77.2114 12.8733 77.6247 11.6 78.4514 10.68C79.2914 9.76 80.4181 9.3 81.8314 9.3C83.2447 9.3 84.3647 9.76 85.1914 10.68C86.0181 11.6 86.4314 12.8733 86.4314 14.5C86.4314 16.1267 86.0181 17.4 85.1914 18.32C84.3647 19.24 83.2447 19.7 81.8314 19.7C80.4181 19.7 79.2914 19.24 78.4514 18.32ZM81.8314 12.64C81.0847 12.64 80.7114 13.2533 80.7114 14.48C80.7114 15.7067 81.0847 16.32 81.8314 16.32C82.5914 16.32 82.9714 15.7067 82.9714 14.48C82.9714 13.2533 82.5914 12.64 81.8314 12.64ZM88.7053 18.32C87.8786 17.4 87.4653 16.1267 87.4653 14.5C87.4653 12.8733 87.8786 11.6 88.7053 10.68C89.5453 9.76 90.672 9.3 92.0853 9.3C93.4986 9.3 94.6186 9.76 95.4453 10.68C96.272 11.6 96.6853 12.8733 96.6853 14.5C96.6853 16.1267 96.272 17.4 95.4453 18.32C94.6186 19.24 93.4986 19.7 92.0853 19.7C90.672 19.7 89.5453 19.24 88.7053 18.32ZM92.0853 12.64C91.3386 12.64 90.9653 13.2533 90.9653 14.48C90.9653 15.7067 91.3386 16.32 92.0853 16.32C92.8453 16.32 93.2253 15.7067 93.2253 14.48C93.2253 13.2533 92.8453 12.64 92.0853 12.64ZM98.5192 15.9C99.5992 16.5533 100.453 16.88 101.079 16.88C101.479 16.88 101.679 16.74 101.679 16.46C101.679 16.26 101.333 16 100.639 15.68C98.9726 15 98.1392 13.8867 98.1392 12.34C98.1392 11.3533 98.4992 10.6 99.2192 10.08C99.9392 9.56 100.799 9.3 101.799 9.3C102.813 9.3 103.666 9.40667 104.359 9.62C105.066 9.83333 105.419 10.1133 105.419 10.46C105.419 10.7533 105.273 11.14 104.979 11.62C104.699 12.1 104.506 12.36 104.399 12.4C103.826 12.08 103.206 11.92 102.539 11.92C102.179 11.92 101.999 12.0467 101.999 12.3C101.999 12.46 102.066 12.6 102.199 12.72C102.346 12.8267 102.606 12.9667 102.979 13.14C103.353 13.3 103.659 13.4467 103.899 13.58C104.153 13.7133 104.433 13.9 104.739 14.14C105.379 14.6467 105.699 15.3067 105.699 16.12C105.699 17.1867 105.346 18.0533 104.639 18.72C103.933 19.3733 102.866 19.7 101.439 19.7C100.493 19.7 99.6326 19.54 98.8592 19.22C98.0859 18.9 97.6992 18.46 97.6992 17.9C97.6992 17.5267 97.7859 17.1333 97.9592 16.72C98.1459 16.3067 98.3326 16.0333 98.5192 15.9ZM111.703 19.38C111.703 19.54 111.143 19.62 110.023 19.62C108.69 19.5667 108.023 19.48 108.023 19.36V12.28H107.003C106.736 12.28 106.603 11.82 106.603 10.9C106.603 10.66 106.623 10.3667 106.663 10.02C106.716 9.67333 106.816 9.5 106.963 9.5H108.023V7.74C108.023 7.47333 108.583 7.34 109.703 7.34C110.836 7.34 111.403 7.44667 111.403 7.66V8.94L111.423 9.5H113.123C113.35 9.5 113.463 9.96667 113.463 10.9C113.463 11.8333 113.35 12.3 113.123 12.3H111.703V19.38Z" fill="white"/>
</svg>
