<svg width="24" height="24" viewBox="0 0 24 24" fill="none" xmlns="http://www.w3.org/2000/svg">
<path d="M11.47 5.47006C11.611 5.33034 11.8015 5.25195 12 5.25195C12.1985 5.25195 12.389 5.33034 12.53 5.47006L17.53 10.4701C17.6037 10.5387 17.6628 10.6215 17.7038 10.7135C17.7448 10.8055 17.7668 10.9048 17.7686 11.0055C17.7704 11.1062 17.7518 11.2063 17.7141 11.2997C17.6764 11.393 17.6203 11.4779 17.549 11.5491C17.4778 11.6203 17.393 11.6765 17.2996 11.7142C17.2062 11.7519 17.1062 11.7704 17.0055 11.7687C16.9048 11.7669 16.8055 11.7448 16.7135 11.7038C16.6215 11.6629 16.5387 11.6037 16.47 11.5301L12.75 7.81006V18.0001C12.75 18.199 12.671 18.3897 12.5303 18.5304C12.3897 18.671 12.1989 18.7501 12 18.7501C11.8011 18.7501 11.6103 18.671 11.4697 18.5304C11.329 18.3897 11.25 18.199 11.25 18.0001V7.81006L7.53 11.5301C7.38782 11.6625 7.19978 11.7347 7.00548 11.7312C6.81118 11.7278 6.62579 11.6491 6.48838 11.5117C6.35096 11.3743 6.27225 11.1889 6.26882 10.9946C6.2654 10.8003 6.33752 10.6122 6.47 10.4701L11.47 5.47006Z" fill="#1E634C"/>
</svg>
