<svg width="40" height="40" viewBox="0 0 40 40" fill="none" xmlns="http://www.w3.org/2000/svg">
<path d="M26.9625 34.6875C24.7875 35.7218 22.4084 36.2557 20 36.25C11.04 36.25 3.75 28.96 3.75 20C3.75 16.1562 5.07125 12.5262 7.5 9.615V12.5H10V5H2.5V7.5H6.0525C2.95322 10.9247 1.24103 15.3812 1.25 20C1.25 30.3387 9.66125 38.75 20 38.75C22.7803 38.7558 25.5266 38.139 28.0375 36.945L26.9625 34.6875Z" fill="url(#paint0_linear_525_949)"/>
<path d="M26.25 11.25C22.3 11.25 19.0613 14.3213 18.7775 18.2C17.4033 16.9461 15.6103 16.2506 13.75 16.25H8.75V21.25C8.75 25.3862 12.115 28.75 16.25 28.75H18.75V33.75H21.25V23.75H23.75C27.885 23.75 31.25 20.3862 31.25 16.25V11.25H26.25ZM16.25 26.25C13.4925 26.25 11.25 24.0075 11.25 21.25V18.75H13.75C16.5075 18.75 18.75 20.9925 18.75 23.75V24.4825L15.8837 21.6162L14.1163 23.3838L16.9825 26.25H16.25ZM28.75 16.25C28.75 19.0075 26.5075 21.25 23.75 21.25H23.0175L25.8838 18.3837L24.1162 16.6163L21.25 19.4825V18.75C21.25 15.9925 23.4925 13.75 26.25 13.75H28.75V16.25Z" fill="url(#paint1_linear_525_949)"/>
<path d="M38.75 20C38.75 9.66123 30.3388 1.24998 20 1.24998C17.2197 1.24419 14.4734 1.86094 11.9625 3.05498L13.0375 5.31248C15.2125 4.27823 17.5916 3.74432 20 3.74998C28.96 3.74998 36.25 11.04 36.25 20C36.25 23.8437 34.9287 27.4737 32.5 30.385V27.5H30V35H37.5V32.5H33.9475C37.0468 29.0753 38.759 24.6188 38.75 20Z" fill="url(#paint2_linear_525_949)"/>
<defs>
<linearGradient id="paint0_linear_525_949" x1="14.6437" y1="5" x2="14.6437" y2="38.75" gradientUnits="userSpaceOnUse">
<stop stop-color="#E6D253"/>
<stop offset="1" stop-color="#1A5843"/>
</linearGradient>
<linearGradient id="paint1_linear_525_949" x1="20" y1="11.25" x2="20" y2="33.75" gradientUnits="userSpaceOnUse">
<stop stop-color="#E6D253"/>
<stop offset="1" stop-color="#1A5843"/>
</linearGradient>
<linearGradient id="paint2_linear_525_949" x1="25.3563" y1="1.24994" x2="25.3563" y2="35" gradientUnits="userSpaceOnUse">
<stop stop-color="#E6D253"/>
<stop offset="1" stop-color="#1A5843"/>
</linearGradient>
</defs>
</svg>
