<svg width="86" height="85" viewBox="0 0 86 85" fill="none" xmlns="http://www.w3.org/2000/svg">
<rect x="0.5" width="85" height="85" rx="42.5" fill="#AD9E3E"/>
<path d="M35.7083 33.1249C35.7083 31.0145 37.5729 28.9583 39.875 28.9583C42.1771 28.9583 44.0417 30.6666 44.0417 32.777C44.0417 33.5374 43.8 34.2458 43.3812 34.8416C42.1354 36.6166 39.875 38.3062 39.875 40.4166M39.875 45.6249H39.8937M34.6667 58.1249C36.8542 59.9374 39.4896 61.0916 42.5083 61.2895C44.8854 61.4458 47.3687 61.4458 49.7437 61.2895C50.5924 61.2308 51.4271 61.0425 52.2187 60.7312C53.0729 60.3833 53.4979 60.2103 53.7167 60.2374C53.9333 60.2624 54.2479 60.4916 54.8771 60.9499C55.9875 61.7583 57.3854 62.3374 59.4604 62.2895C60.5083 62.2645 61.0333 62.2499 61.2667 61.8562C61.5021 61.4603 61.2104 60.9145 60.625 59.8208C59.8125 58.3041 59.3 56.5687 60.0792 55.177C61.4187 53.1895 62.5583 50.8374 62.725 48.2958C62.8146 46.9312 62.8146 45.5166 62.725 44.1499C62.6164 42.5007 62.2157 40.884 61.5417 39.3749" stroke="white" stroke-width="4.375" stroke-linecap="round" stroke-linejoin="round"/>
<path d="M43.4938 52.9562C46.8652 52.7333 50.0407 51.2924 52.4286 48.9018C54.8165 46.5113 56.2538 43.3342 56.4729 39.9625C56.5646 38.5979 56.5646 37.1833 56.4729 35.8166C56.2534 32.4453 54.8158 29.2686 52.4279 26.8785C50.0401 24.4884 46.8649 23.0478 43.4938 22.825C41.0844 22.6697 38.6676 22.6697 36.2583 22.825C32.8863 23.0473 29.71 24.4879 27.3214 26.8785C24.9327 29.269 23.4946 32.4464 23.275 35.8187C23.1832 37.1991 23.1832 38.5841 23.275 39.9645C23.4417 42.5062 24.5812 44.8583 25.9208 46.8437C26.7 48.2354 26.1854 49.9708 25.375 51.4895C24.7917 52.5812 24.5 53.127 24.7333 53.5229C24.9687 53.9187 25.4917 53.9291 26.5417 53.9562C28.6146 54.0062 30.0125 53.425 31.1229 52.6166C31.7521 52.1583 32.0667 51.9291 32.2833 51.9041C32.5 51.8791 32.9292 52.0499 33.7833 52.3979C34.55 52.7104 35.4396 52.902 36.2583 52.9562C38.6312 53.1124 41.1125 53.1124 43.4938 52.9562Z" stroke="white" stroke-width="4.375" stroke-linecap="round" stroke-linejoin="round"/>
</svg>
