<svg width="40" height="40" viewBox="0 0 40 40" fill="none" xmlns="http://www.w3.org/2000/svg">
<path d="M29.6422 1.88016L27.4501 8.70883L29.6585 9.17297L29.4165 10.3723L25.3345 14.1101L21.311 10.7409L19.4826 10.4212C20.1245 9.30164 20.6297 7.86102 20.7641 6.54664C21.547 6.36852 23.4923 6.10328 24.3652 5.76078C23.9748 4.95727 22.0061 4.44 20.5605 4.48609C20.4252 2.86789 19.8668 2.21625 17.8922 2.30625C15.9175 2.39617 15.3162 2.82195 15.5359 5.1518C14.062 5.47422 12.5596 6.13742 12.4312 7.26774C13.0461 7.24375 15.0062 7.04148 15.6128 7.0325C15.6644 8.13406 15.9566 9.20805 16.3917 9.8743L13.645 9.39578L8.28125 15.3064L14.3237 19.6716L14.4507 20.9876L11.7796 37.843H14.7777L17.771 24.6204L21.5111 37.843H24.4384L24.16 36.5612L25.4955 37.843L30.4222 12.6452C30.8136 12.2905 31.146 11.9827 31.367 11.7615C31.3809 10.9383 31.1688 10.2816 30.9691 9.84742L31.0449 9.46445L33.1729 9.91164L33.8326 2.63688L32.0477 8.01039L31.2002 7.83414L31.7186 2.15774L30.0336 7.59133L29.1573 7.40906L29.6422 1.88016ZM31.7186 2.15774L31.7188 2.15695H31.7186V2.15774ZM14.2847 11.9836L14.3116 16.991L11.8506 15.1355L14.2847 11.9836ZM21.1621 13.6439L25.1367 17.2327C25.1367 17.2327 26.933 15.7127 28.6426 14.2225L24.1552 36.532L20.8105 21.1001L21.1621 13.6439Z" fill="url(#paint0_linear_525_929)"/>
<defs>
<linearGradient id="paint0_linear_525_929" x1="21.0569" y1="1.88016" x2="21.0569" y2="37.843" gradientUnits="userSpaceOnUse">
<stop stop-color="#E6D253"/>
<stop offset="1" stop-color="#1A5843"/>
</linearGradient>
</defs>
</svg>
