<svg width="86" height="85" viewBox="0 0 86 85" fill="none" xmlns="http://www.w3.org/2000/svg">
<rect x="0.5" width="85" height="85" rx="42.5" fill="#216E54"/>
<path d="M28.8333 61.25H48.875C50.0771 61.2499 51.265 60.9898 52.3572 60.4874C53.4493 59.985 54.4198 59.2523 55.2021 58.3396L65.8313 45.9396C66.0538 45.6804 66.2092 45.3704 66.2838 45.037C66.3584 44.7036 66.3498 44.3569 66.2588 44.0276C66.1678 43.6983 65.9972 43.3964 65.7621 43.1485C65.527 42.9007 65.2345 42.7144 64.9104 42.6062L60.8104 41.2396C59.8196 40.9169 58.7644 40.8437 57.7385 41.0265C56.7126 41.2093 55.7476 41.6424 54.9292 42.2875L48.2938 47.5937L47.0083 45.0208C46.3197 43.6339 45.2565 42.4675 43.939 41.6538C42.6216 40.8401 41.1026 40.4115 39.5542 40.4166H28.8333C26.5354 40.4166 24.6667 42.2854 24.6667 44.5833V57.0833C24.6667 59.3812 26.5354 61.25 28.8333 61.25ZM28.8333 44.5833H39.5542C41.1438 44.5833 42.5708 45.4646 43.2813 46.8854L44.2125 48.75H35.0833V52.9166H47.6125C47.933 52.9121 48.2481 52.8337 48.5333 52.6875L48.5396 52.6854L48.5479 52.6812H48.5542L48.5583 52.6791H48.5667L48.5688 52.6771C48.5875 52.6833 48.575 52.675 48.575 52.675C48.5958 52.675 48.5792 52.6729 48.5792 52.6729H48.5813L48.5854 52.6708L48.5917 52.6687L48.5958 52.6666L48.6 52.6646L48.6063 52.6625L48.6104 52.6604C48.6167 52.6604 48.6125 52.6583 48.6146 52.6583L48.6208 52.6541L48.625 52.6521L48.6292 52.65L48.6354 52.6479L48.6396 52.6458H48.6417L48.6458 52.6437L48.6521 52.6416L48.6563 52.6396C48.675 52.6375 48.6625 52.6375 48.6625 52.6375L48.6667 52.6354C48.7466 52.5864 48.8232 52.5322 48.8958 52.4729L57.5333 45.5625C58.0792 45.1291 58.8313 44.9937 59.4917 45.2146L60.6521 45.6021L52.0417 55.65C51.6455 56.0996 51.1583 56.4599 50.6124 56.707C50.0665 56.9541 49.4743 57.0824 48.875 57.0833H28.8333V44.5833ZM53.8333 21.6666H53.7979C53.4583 21.6708 51.7021 21.7479 49.6667 23.1354C47.6854 21.7854 45.9708 21.6771 45.5667 21.6687L45.5042 21.6666H45.4958C43.8271 21.6666 42.2563 22.3187 41.0812 23.4958C39.9021 24.6771 39.25 26.2458 39.25 27.9166C39.25 29.5875 39.9021 31.1562 41.0438 32.3L48.1562 39.7708C48.3519 39.974 48.5866 40.1355 48.8462 40.2458C49.1058 40.3561 49.385 40.4128 49.6671 40.4126C49.9492 40.4124 50.2283 40.3553 50.4878 40.2447C50.7472 40.134 50.9817 39.9721 51.1771 39.7687L58.2521 32.3354C59.4333 31.1562 60.0833 29.5875 60.0833 27.9166C60.0833 26.2458 59.4312 24.6771 58.2542 23.4979C57.6756 22.9159 56.9873 22.4544 56.2292 22.14C55.4711 21.8257 54.6582 21.6648 53.8375 21.6666H53.8333ZM55.9167 27.9166C55.9167 28.4729 55.7 28.9958 55.2687 29.4271L49.6667 35.3125L44.0271 29.3896C43.6333 28.9958 43.4167 28.4729 43.4167 27.9166C43.4167 27.3604 43.6333 26.8375 44.0292 26.4416C44.4063 26.059 44.919 25.8404 45.4563 25.8333C45.5083 25.8354 46.5021 25.9 47.6792 26.8437C47.8472 26.9798 48.0188 27.134 48.1938 27.3062L49.6667 28.7791L51.1396 27.3062C51.3146 27.134 51.4861 26.9798 51.6542 26.8437C52.7563 25.9583 53.6875 25.8479 53.8458 25.8354C54.3937 25.8383 54.9184 26.0568 55.3063 26.4437C55.7 26.8375 55.9167 27.3604 55.9167 27.9166Z" fill="white"/>
</svg>
