<svg width="40" height="40" viewBox="0 0 40 40" fill="none" xmlns="http://www.w3.org/2000/svg">
<path d="M8.33333 26.6666L16.6667 21.6666M23.3333 18.3333L31.6667 13.3333M20 8.33331V16.6666M20 23.3333V31.6666M8.33333 13.3333L16.6667 18.3333M23.3333 21.6666L31.6667 26.6666M34.1667 15V24.1666M22.5 34.1666L31.6667 29.1666M7.5 29.1666L17.5 34.1666M5.83333 25V15M7.5 10.8333L17.5 5.83331M32.5 10.8333L22.5 5.83331" stroke="url(#paint0_linear_525_935)" stroke-width="4.375" stroke-linecap="round" stroke-linejoin="round"/>
<path d="M20 8.33331C21.3807 8.33331 22.5 7.21402 22.5 5.83331C22.5 4.4526 21.3807 3.33331 20 3.33331C18.6193 3.33331 17.5 4.4526 17.5 5.83331C17.5 7.21402 18.6193 8.33331 20 8.33331Z" stroke="url(#paint1_linear_525_935)" stroke-width="4.375" stroke-linecap="round" stroke-linejoin="round"/>
<path d="M20 36.6666C21.3807 36.6666 22.5 35.5473 22.5 34.1666C22.5 32.7859 21.3807 31.6666 20 31.6666C18.6193 31.6666 17.5 32.7859 17.5 34.1666C17.5 35.5473 18.6193 36.6666 20 36.6666Z" stroke="url(#paint2_linear_525_935)" stroke-width="4.375" stroke-linecap="round" stroke-linejoin="round"/>
<path d="M5.83333 15C7.21404 15 8.33333 13.8807 8.33333 12.5C8.33333 11.1193 7.21404 10 5.83333 10C4.45262 10 3.33333 11.1193 3.33333 12.5C3.33333 13.8807 4.45262 15 5.83333 15Z" stroke="url(#paint3_linear_525_935)" stroke-width="4.375" stroke-linecap="round" stroke-linejoin="round"/>
<path d="M34.1667 15C35.5474 15 36.6667 13.8807 36.6667 12.5C36.6667 11.1193 35.5474 10 34.1667 10C32.786 10 31.6667 11.1193 31.6667 12.5C31.6667 13.8807 32.786 15 34.1667 15Z" stroke="url(#paint4_linear_525_935)" stroke-width="4.375" stroke-linecap="round" stroke-linejoin="round"/>
<path d="M34.1667 30C35.5474 30 36.6667 28.8807 36.6667 27.5C36.6667 26.1193 35.5474 25 34.1667 25C32.786 25 31.6667 26.1193 31.6667 27.5C31.6667 28.8807 32.786 30 34.1667 30Z" stroke="url(#paint5_linear_525_935)" stroke-width="4.375" stroke-linecap="round" stroke-linejoin="round"/>
<path d="M5.83333 30C7.21404 30 8.33333 28.8807 8.33333 27.5C8.33333 26.1193 7.21404 25 5.83333 25C4.45262 25 3.33333 26.1193 3.33333 27.5C3.33333 28.8807 4.45262 30 5.83333 30Z" stroke="url(#paint6_linear_525_935)" stroke-width="4.375" stroke-linecap="round" stroke-linejoin="round"/>
<path d="M20 16.25L23.3333 18.125V21.875L20 23.75L16.6667 21.875V18.125L20 16.25Z" stroke="url(#paint7_linear_525_935)" stroke-width="4.375" stroke-linecap="round" stroke-linejoin="round"/>
<defs>
<linearGradient id="paint0_linear_525_935" x1="20" y1="5.83331" x2="20" y2="34.1666" gradientUnits="userSpaceOnUse">
<stop stop-color="#E6D253"/>
<stop offset="1" stop-color="#1A5843"/>
</linearGradient>
<linearGradient id="paint1_linear_525_935" x1="20" y1="3.33331" x2="20" y2="8.33331" gradientUnits="userSpaceOnUse">
<stop stop-color="#E6D253"/>
<stop offset="1" stop-color="#1A5843"/>
</linearGradient>
<linearGradient id="paint2_linear_525_935" x1="20" y1="31.6666" x2="20" y2="36.6666" gradientUnits="userSpaceOnUse">
<stop stop-color="#E6D253"/>
<stop offset="1" stop-color="#1A5843"/>
</linearGradient>
<linearGradient id="paint3_linear_525_935" x1="5.83333" y1="10" x2="5.83333" y2="15" gradientUnits="userSpaceOnUse">
<stop stop-color="#E6D253"/>
<stop offset="1" stop-color="#1A5843"/>
</linearGradient>
<linearGradient id="paint4_linear_525_935" x1="34.1667" y1="10" x2="34.1667" y2="15" gradientUnits="userSpaceOnUse">
<stop stop-color="#E6D253"/>
<stop offset="1" stop-color="#1A5843"/>
</linearGradient>
<linearGradient id="paint5_linear_525_935" x1="34.1667" y1="25" x2="34.1667" y2="30" gradientUnits="userSpaceOnUse">
<stop stop-color="#E6D253"/>
<stop offset="1" stop-color="#1A5843"/>
</linearGradient>
<linearGradient id="paint6_linear_525_935" x1="5.83333" y1="25" x2="5.83333" y2="30" gradientUnits="userSpaceOnUse">
<stop stop-color="#E6D253"/>
<stop offset="1" stop-color="#1A5843"/>
</linearGradient>
<linearGradient id="paint7_linear_525_935" x1="20" y1="16.25" x2="20" y2="23.75" gradientUnits="userSpaceOnUse">
<stop stop-color="#E6D253"/>
<stop offset="1" stop-color="#1A5843"/>
</linearGradient>
</defs>
</svg>
