<svg width="86" height="85" viewBox="0 0 86 85" fill="none" xmlns="http://www.w3.org/2000/svg">
<rect x="0.5" width="85" height="85" rx="42.5" fill="#E6D253"/>
<path d="M59.6667 34.1665H26.3333C25.1827 34.1665 24.25 35.0992 24.25 36.2498V40.4165C24.25 41.5671 25.1827 42.4998 26.3333 42.4998H59.6667C60.8173 42.4998 61.75 41.5671 61.75 40.4165V36.2498C61.75 35.0992 60.8173 34.1665 59.6667 34.1665Z" stroke="white" stroke-width="5.83333" stroke-linecap="round" stroke-linejoin="round"/>
<path d="M43 34.1666V61.2499M43 34.1666C42.2464 31.0612 40.9488 28.4063 39.2765 26.5482C37.6042 24.6901 35.6348 23.7149 33.625 23.7499C32.2437 23.7499 30.9189 24.2987 29.9422 25.2754C28.9654 26.2522 28.4167 27.5769 28.4167 28.9583C28.4167 30.3396 28.9654 31.6644 29.9422 32.6411C30.9189 33.6179 32.2437 34.1666 33.625 34.1666M43 34.1666C43.7536 31.0612 45.0512 28.4063 46.7235 26.5482C48.3958 24.6901 50.3652 23.7149 52.375 23.7499C53.7563 23.7499 55.0811 24.2987 56.0579 25.2754C57.0346 26.2522 57.5833 27.5769 57.5833 28.9583C57.5833 30.3396 57.0346 31.6644 56.0579 32.6411C55.0811 33.6179 53.7563 34.1666 52.375 34.1666M57.5833 42.4999V57.0833C57.5833 58.1883 57.1443 59.2481 56.3629 60.0295C55.5815 60.8109 54.5217 61.2499 53.4167 61.2499H32.5833C31.4783 61.2499 30.4185 60.8109 29.6371 60.0295C28.8557 59.2481 28.4167 58.1883 28.4167 57.0833V42.4999" stroke="white" stroke-width="5.83333" stroke-linecap="round" stroke-linejoin="round"/>
</svg>
