<svg width="16" height="10" viewBox="0 0 16 10" fill="none" xmlns="http://www.w3.org/2000/svg">
<path d="M2.4864 8.03267C5.27398 8.86646 5.87494 8.54345 4.5344 5.98467C4.47614 5.73873 4.44581 5.487 4.444 5.23427C4.444 3.33107 6.036 1.78707 8 1.78707C8.2288 1.78707 8.4512 1.81267 8.668 1.85267C11.3774 2.62377 11 2.43827 11.5 1C10.9609 0.911923 8.54619 0.757515 8 0.755066C2.752 0.754266 0 4.61907 0 5.23427C0 5.57267 0.8456 6.90707 2.4864 8.03267ZM13.516 2.43827C11.4517 2.26404 10.8363 2.58149 11.4664 4.48627C11.5216 4.72787 11.5552 4.97667 11.5552 5.23427C11.5552 7.13747 9.964 8.67987 8 8.67987C7.7728 8.67987 7.552 8.65427 7.3368 8.61507C5.54374 8.46741 5.00147 8.55582 6.3736 9.57747C6.8872 9.66067 7.4264 9.71347 8 9.71347C13.248 9.71347 16 5.84707 16 5.23427C16 4.89507 15.1552 3.56227 13.516 2.43827Z" fill="#BAD2CA"/>
</svg>
