<svg width="86" height="85" viewBox="0 0 86 85" fill="none" xmlns="http://www.w3.org/2000/svg">
<rect x="0.5" width="85" height="85" rx="42.5" fill="#144232"/>
<path d="M36.5896 28.6041C37.2154 27.4496 38.1414 26.4856 39.2697 25.8138C40.398 25.142 41.6868 24.7874 43 24.7874C44.3132 24.7874 45.602 25.142 46.7303 25.8138C47.8586 26.4856 48.7846 27.4496 49.4104 28.6041C50.1759 27.7915 51.1703 27.2307 52.2618 26.9962C53.3533 26.7616 54.4903 26.8644 55.5221 27.2909C56.5538 27.7174 57.4315 28.4475 58.0388 29.3843C58.6461 30.321 58.9543 31.4203 58.9225 32.5363C58.8908 33.6522 58.5205 34.7322 57.8609 35.6329C57.2013 36.5336 56.2834 37.2125 55.2291 37.5796C54.1748 37.9467 53.0338 37.9846 51.9574 37.6884C50.881 37.3921 49.9201 36.7757 49.2021 35.9208C48.5482 36.9772 47.6352 37.8491 46.5498 38.4536C45.4643 39.0581 44.2424 39.3753 43 39.3749C41.7581 39.3751 40.5368 39.0581 39.4517 38.454C38.3667 37.8499 37.4539 36.9786 36.8 35.9229C36.0819 36.7775 35.1209 37.3936 34.0446 37.6897C32.9682 37.9857 31.8274 37.9475 30.7732 37.5803C29.719 37.2131 28.8014 36.5342 28.1419 35.6335C27.4824 34.7329 27.1122 33.653 27.0805 32.5372C27.0487 31.4214 27.3568 30.3222 27.964 29.3855C28.5712 28.4488 29.4488 27.7187 30.4803 27.2922C31.5119 26.8656 32.6488 26.7626 33.7402 26.9969C34.8316 27.2312 35.824 27.7917 36.5896 28.6041ZM37.9104 30.9791C38.1253 31.7952 38.1503 32.6498 37.9833 33.477C38.2885 34.5739 38.9444 35.5406 39.851 36.2293C40.7575 36.9181 41.8646 37.291 43.0031 37.291C44.1416 37.291 45.2488 36.9181 46.1553 36.2293C47.0618 35.5406 47.7178 34.5739 48.0229 33.477C47.8557 32.6492 47.8799 31.7941 48.0937 30.977C47.8412 29.8144 47.1983 28.7732 46.2721 28.0265C45.3458 27.2799 44.1918 26.8727 43.0021 26.8727C41.8123 26.8727 40.6584 27.2799 39.7321 28.0265C38.8058 28.7732 38.163 29.8165 37.9104 30.9791ZM35.7729 31.127C35.4787 30.377 34.9294 29.7548 34.2216 29.37C33.5139 28.9851 32.6931 28.8622 31.9036 29.0229C31.1142 29.1836 30.4067 29.6176 29.9057 30.2486C29.4048 30.8795 29.1424 31.6669 29.1648 32.4722C29.1872 33.2776 29.493 34.0492 30.0282 34.6513C30.5635 35.2534 31.294 35.6474 32.0912 35.7639C32.8884 35.8805 33.7011 35.7121 34.3863 35.2885C35.0716 34.8648 35.5855 34.2131 35.8375 33.4479C35.6922 32.6827 35.6704 31.8991 35.7729 31.127ZM50.1667 33.4458C50.4185 34.2117 50.9324 34.8643 51.6181 35.2886C52.3037 35.7129 53.117 35.8817 53.9149 35.7652C54.7127 35.6488 55.4439 35.2547 55.9797 34.6522C56.5155 34.0497 56.8216 33.2775 56.844 32.4715C56.8665 31.6655 56.6039 30.8775 56.1024 30.2461C55.601 29.6147 54.8929 29.1804 54.1027 29.0198C53.3126 28.8592 52.4912 28.9824 51.783 29.3679C51.0748 29.7533 50.5253 30.3763 50.2312 31.127C50.3336 31.8984 50.3118 32.6813 50.1667 33.4458ZM28.3146 38.952C29.0375 38.7604 29.7208 38.9979 30.1917 39.3395C30.3792 39.4749 30.6375 39.6416 30.9521 39.7937C31.1929 39.9185 31.3756 40.1323 31.4612 40.3897C31.5469 40.647 31.5288 40.9277 31.4107 41.1719C31.2927 41.4161 31.084 41.6046 30.8291 41.6974C30.5743 41.7902 30.2932 41.7799 30.0458 41.6687C29.6685 41.4871 29.3081 41.2723 28.9687 41.027C28.935 41.0029 28.8977 40.9839 28.8583 40.9708L28.8437 40.9687C28.5628 41.0437 28.2843 41.1271 28.0083 41.2187L26.5792 41.6854C26.0462 41.8589 25.5645 42.1616 25.177 42.5666C24.7895 42.9715 24.5082 43.4661 24.3583 44.0062L23.7687 48.275C23.6521 49.1145 24.0958 49.7437 24.7271 49.8937C25.1924 50.0076 25.7569 50.1187 26.4208 50.227C26.556 50.2489 26.6855 50.2972 26.802 50.3692C26.9185 50.4411 27.0197 50.5353 27.0997 50.6463C27.1798 50.7574 27.2373 50.8831 27.2688 51.0163C27.3003 51.1496 27.3052 51.2877 27.2833 51.4229C27.2614 51.558 27.2132 51.6875 27.1412 51.804C27.0693 51.9205 26.9751 52.0217 26.864 52.1018C26.753 52.1819 26.6273 52.2393 26.494 52.2708C26.3608 52.3023 26.2227 52.3073 26.0875 52.2854C25.4693 52.1869 24.8549 52.0653 24.2458 51.9208C22.3812 51.477 21.4687 49.6916 21.7042 47.9895L22.3125 43.602L22.325 43.5458C22.5531 42.6537 23.0032 41.8339 23.6334 41.1626C24.2636 40.4913 25.0533 39.9903 25.9292 39.7062L27.3562 39.2374C27.6757 39.1333 27.9951 39.0381 28.3146 38.952ZM57.9583 38.952C57.6366 38.8733 57.3014 38.8672 56.9771 38.9342C56.6528 39.0013 56.3474 39.1397 56.0833 39.3395C55.8958 39.4749 55.6375 39.6416 55.3229 39.7937C55.0821 39.9185 54.8994 40.1323 54.8138 40.3897C54.7281 40.647 54.7462 40.9277 54.8643 41.1719C54.9823 41.4161 55.191 41.6046 55.4458 41.6974C55.7007 41.7902 55.9818 41.7799 56.2292 41.6687C56.6065 41.4871 56.9669 41.2723 57.3062 41.027C57.34 41.0029 57.3773 40.9839 57.4167 40.9708L57.4271 40.9687H57.4312C57.7132 41.0423 57.9917 41.1256 58.2667 41.2187L59.6958 41.6854C60.7917 42.0458 61.6229 42.9229 61.9167 44.0062L62.5062 48.275C62.6229 49.1145 62.1812 49.7437 61.5479 49.8937C60.9877 50.026 60.4227 50.1372 59.8542 50.227C59.5812 50.2712 59.337 50.4221 59.1752 50.6463C59.0135 50.8706 58.9475 51.1499 58.9917 51.4229C59.0359 51.6958 59.1867 51.94 59.411 52.1018C59.6352 52.2635 59.9145 52.3296 60.1875 52.2854C60.8986 52.1673 61.5125 52.0458 62.0292 51.9208C63.8937 51.477 64.8062 49.6916 64.5708 47.9895L63.9625 43.602L63.95 43.5458C63.7218 42.6537 63.2717 41.8339 62.6416 41.1626C62.0114 40.4913 61.2217 39.9903 60.3458 39.7062L58.9187 39.2374C58.6019 39.1338 58.2803 39.0386 57.9583 38.952Z" fill="white"/>
<path d="M46.7313 42.3333C47.4792 41.8375 48.5229 41.4792 49.6 41.7813C49.925 41.8729 50.2493 41.9722 50.5729 42.0792L52.5708 42.7354C53.7301 43.1118 54.7754 43.7753 55.6095 44.664C56.4436 45.5527 57.0395 46.638 57.3417 47.8188L57.3563 47.875L58.2021 53.9917C58.5083 56.2 57.3271 58.4708 54.9646 59.0333C52.5688 59.6042 48.6896 60.2083 43 60.2083C37.3125 60.2083 33.4313 59.6042 31.0354 59.0333C28.6729 58.4708 27.4917 56.2 27.7979 53.9917L28.6438 47.875L28.6583 47.8188C28.9605 46.638 29.5564 45.5527 30.3905 44.664C31.2246 43.7753 32.2699 43.1118 33.4292 42.7354L35.4292 42.0792C35.7514 41.9722 36.075 41.8729 36.4 41.7813C37.4771 41.4771 38.5208 41.8375 39.2688 42.3333C40.0667 42.8625 41.3792 43.5125 43 43.5125C44.6208 43.5125 45.9354 42.8625 46.7313 42.3333ZM49.0333 43.7854C48.7375 43.7021 48.325 43.7771 47.8833 44.0688C46.8896 44.7292 45.175 45.5958 43 45.5958C40.825 45.5958 39.1104 44.7292 38.1167 44.0688C37.6771 43.7771 37.2625 43.7021 36.9667 43.7854C36.6681 43.8688 36.3722 43.959 36.0792 44.0563L34.0792 44.7146C33.2631 44.9803 32.526 45.4452 31.9346 46.0671C31.3431 46.6891 30.916 47.4486 30.6917 48.2771L29.8604 54.2771C29.6729 55.625 30.3875 56.7354 31.5188 57.0063C33.7417 57.5375 37.4604 58.125 43 58.125C48.5396 58.125 52.2583 57.5375 54.4813 57.0063C55.6125 56.7354 56.325 55.625 56.1396 54.2771L55.3083 48.2771C55.084 47.4486 54.6569 46.6891 54.0654 46.0671C53.474 45.4452 52.7369 44.9803 51.9208 44.7146L49.9208 44.0583C49.6278 43.9611 49.3319 43.8708 49.0333 43.7875" fill="white"/>
</svg>
