<svg width="66" height="66" viewBox="0 0 66 66" fill="none" xmlns="http://www.w3.org/2000/svg">
<path d="M66 33C66 51.2254 51.2254 66 33 66C14.7746 66 0 51.2254 0 33C0 14.7746 14.7746 0 33 0C51.2254 0 66 14.7746 66 33ZM6.6 33C6.6 47.5803 18.4197 59.4 33 59.4C47.5803 59.4 59.4 47.5803 59.4 33C59.4 18.4197 47.5803 6.6 33 6.6C18.4197 6.6 6.6 18.4197 6.6 33Z" fill="#FBF8E5"/>
<path d="M62.0463 39.1969C63.8287 39.5772 65.5994 38.4405 65.7999 36.629C66.2198 32.8333 65.9786 28.9847 65.0786 25.2562C63.9197 20.4558 61.6983 15.9767 58.5781 12.1491C55.4579 8.32143 51.5183 5.24288 47.05 3.14037C43.5794 1.50732 39.8585 0.495442 36.0559 0.141794C34.2412 -0.0269802 32.771 1.47829 32.7842 3.30078V3.30078C32.7975 5.12328 34.2911 6.56868 36.1011 6.78276C38.9146 7.11556 41.6635 7.89997 44.24 9.1123C47.8147 10.7943 50.9663 13.2571 53.4625 16.3193C55.9587 19.3814 57.7358 22.9647 58.6628 26.805C59.331 29.5729 59.5453 32.4235 59.3043 35.2464C59.1492 37.0623 60.2639 38.8166 62.0463 39.1969V39.1969Z" fill="#E6D253"/>
<path d="M26.2666 30.8164V30.8651C26.2666 31.4384 26.2666 31.7258 26.1286 31.9604C25.9906 32.1951 25.7393 32.3344 25.238 32.6138L24.7093 32.9071C25.0733 31.6751 25.1953 30.3511 25.24 29.2191L25.2466 29.0718L25.248 29.0371C25.682 29.1878 25.926 29.3004 26.078 29.5111C26.2666 29.7731 26.2666 30.1211 26.2666 30.8164ZM12.9333 30.8164V30.8651C12.9333 31.4384 12.9333 31.7258 13.0713 31.9604C13.2093 32.1951 13.4606 32.3344 13.962 32.6138L14.4913 32.9071C14.1266 31.6751 14.0046 30.3511 13.96 29.2191L13.9533 29.0718L13.9526 29.0371C13.518 29.1878 13.274 29.3004 13.122 29.5111C12.9333 29.7731 12.9333 30.1218 12.9333 30.8164Z" fill="url(#paint0_linear_3067_990)"/>
<path fill-rule="evenodd" clip-rule="evenodd" d="M19.6 26.7082C20.7893 26.7082 21.7686 26.8128 22.518 26.9395C23.2773 27.0675 23.6566 27.1315 23.974 27.5222C24.2913 27.9128 24.274 28.3348 24.2406 29.1788C24.126 32.0782 23.5006 35.6988 20.1 36.0188V38.3748H21.0533C21.2074 38.3749 21.3566 38.4284 21.4758 38.5261C21.5949 38.6238 21.6764 38.7598 21.7066 38.9108L21.8333 39.5415H23.6C23.7326 39.5415 23.8598 39.5942 23.9535 39.6879C24.0473 39.7817 24.1 39.9089 24.1 40.0415C24.1 40.1741 24.0473 40.3013 23.9535 40.395C23.8598 40.4888 23.7326 40.5415 23.6 40.5415H15.6C15.4674 40.5415 15.3402 40.4888 15.2464 40.395C15.1527 40.3013 15.1 40.1741 15.1 40.0415C15.1 39.9089 15.1527 39.7817 15.2464 39.6879C15.3402 39.5942 15.4674 39.5415 15.6 39.5415H17.3666L17.4933 38.9108C17.5235 38.7598 17.6051 38.6238 17.7242 38.5261C17.8433 38.4284 17.9926 38.3749 18.1466 38.3748H19.1V36.0188C15.7 35.6988 15.0746 32.0775 14.96 29.1788C14.926 28.3348 14.9093 27.9122 15.2266 27.5222C15.5433 27.1315 15.9226 27.0675 16.682 26.9395C17.6465 26.7815 18.6226 26.7041 19.6 26.7082ZM20.2346 29.5075L20.1693 29.3902C19.916 28.9348 19.7893 28.7082 19.6 28.7082C19.4106 28.7082 19.284 28.9348 19.0306 29.3902L18.9653 29.5075C18.8933 29.6368 18.8573 29.7008 18.8013 29.7435C18.7446 29.7862 18.6746 29.8022 18.5346 29.8335L18.408 29.8628C17.916 29.9742 17.67 30.0295 17.6113 30.2175C17.5526 30.4055 17.7206 30.6022 18.056 30.9942L18.1426 31.0955C18.238 31.2068 18.286 31.2622 18.3073 31.3315C18.3286 31.4008 18.3213 31.4748 18.3073 31.6235L18.294 31.7588C18.2433 32.2822 18.218 32.5442 18.3706 32.6602C18.524 32.7762 18.7546 32.6702 19.2153 32.4582L19.334 32.4035C19.4653 32.3435 19.5306 32.3135 19.6 32.3135C19.6693 32.3135 19.7346 32.3435 19.866 32.4035L19.9846 32.4582C20.4453 32.6708 20.676 32.7762 20.8293 32.6602C20.9826 32.5442 20.9566 32.2822 20.906 31.7588L20.8926 31.6235C20.8786 31.4748 20.8713 31.4008 20.8926 31.3315C20.914 31.2622 20.962 31.2068 21.0573 31.0955L21.144 30.9942C21.4793 30.6022 21.6473 30.4062 21.5886 30.2175C21.53 30.0295 21.284 29.9742 20.792 29.8628L20.6653 29.8335C20.5253 29.8022 20.4553 29.7868 20.3986 29.7435C20.3426 29.7008 20.3066 29.6368 20.2346 29.5075Z" fill="url(#paint1_linear_3067_990)"/>
<path d="M28.787 30.189C28.843 29.321 29.1743 28.6443 29.781 28.159C30.397 27.6737 31.181 27.431 32.133 27.431C32.7863 27.431 33.351 27.5477 33.827 27.781C34.303 28.0143 34.6623 28.3317 34.905 28.733C35.1476 29.1343 35.269 29.587 35.269 30.091C35.269 30.6697 35.115 31.1643 34.807 31.575C34.499 31.9857 34.1303 32.261 33.701 32.401V32.457C34.2516 32.625 34.681 32.933 34.989 33.381C35.297 33.8197 35.451 34.3843 35.451 35.075C35.451 35.6257 35.325 36.1157 35.073 36.545C34.821 36.9743 34.4476 37.315 33.953 37.567C33.4583 37.8097 32.8656 37.931 32.175 37.931C31.167 37.931 30.3363 37.6743 29.683 37.161C29.039 36.6383 28.6936 35.8917 28.647 34.921H30.187C30.2243 35.4157 30.4156 35.8217 30.761 36.139C31.1063 36.447 31.573 36.601 32.161 36.601C32.7303 36.601 33.169 36.447 33.477 36.139C33.785 35.8217 33.939 35.4157 33.939 34.921C33.939 34.2677 33.729 33.8057 33.309 33.535C32.8983 33.255 32.2636 33.115 31.405 33.115H31.041V31.799H31.419C32.175 31.7897 32.749 31.6637 33.141 31.421C33.5423 31.1783 33.743 30.7957 33.743 30.273C33.743 29.825 33.5983 29.4703 33.309 29.209C33.0196 28.9383 32.609 28.803 32.077 28.803C31.5543 28.803 31.1483 28.9383 30.859 29.209C30.5696 29.4703 30.397 29.797 30.341 30.189H28.787ZM37.1275 32.639C37.1275 31.0243 37.3981 29.7643 37.9395 28.859C38.4901 27.9443 39.4328 27.487 40.7675 27.487C42.1021 27.487 43.0401 27.9443 43.5815 28.859C44.1321 29.7643 44.4075 31.0243 44.4075 32.639C44.4075 34.2723 44.1321 35.551 43.5815 36.475C43.0401 37.3897 42.1021 37.847 40.7675 37.847C39.4328 37.847 38.4901 37.3897 37.9395 36.475C37.3981 35.551 37.1275 34.2723 37.1275 32.639ZM42.8395 32.639C42.8395 31.883 42.7881 31.2437 42.6855 30.721C42.5921 30.1983 42.3961 29.7737 42.0975 29.447C41.7988 29.111 41.3555 28.943 40.7675 28.943C40.1795 28.943 39.7361 29.111 39.4375 29.447C39.1388 29.7737 38.9381 30.1983 38.8355 30.721C38.7421 31.2437 38.6955 31.883 38.6955 32.639C38.6955 33.423 38.7421 34.081 38.8355 34.613C38.9288 35.145 39.1248 35.5743 39.4235 35.901C39.7315 36.2277 40.1795 36.391 40.7675 36.391C41.3555 36.391 41.7988 36.2277 42.0975 35.901C42.4055 35.5743 42.6061 35.145 42.6995 34.613C42.7928 34.081 42.8395 33.423 42.8395 32.639ZM46.0962 32.639C46.0962 31.0243 46.3669 29.7643 46.9082 28.859C47.4589 27.9443 48.4016 27.487 49.7362 27.487C51.0709 27.487 52.0089 27.9443 52.5502 28.859C53.1009 29.7643 53.3762 31.0243 53.3762 32.639C53.3762 34.2723 53.1009 35.551 52.5502 36.475C52.0089 37.3897 51.0709 37.847 49.7362 37.847C48.4016 37.847 47.4589 37.3897 46.9082 36.475C46.3669 35.551 46.0962 34.2723 46.0962 32.639ZM51.8082 32.639C51.8082 31.883 51.7569 31.2437 51.6542 30.721C51.5609 30.1983 51.3649 29.7737 51.0662 29.447C50.7676 29.111 50.3242 28.943 49.7362 28.943C49.1482 28.943 48.7049 29.111 48.4062 29.447C48.1076 29.7737 47.9069 30.1983 47.8042 30.721C47.7109 31.2437 47.6642 31.883 47.6642 32.639C47.6642 33.423 47.7109 34.081 47.8042 34.613C47.8976 35.145 48.0936 35.5743 48.3922 35.901C48.7002 36.2277 49.1482 36.391 49.7362 36.391C50.3242 36.391 50.7676 36.2277 51.0662 35.901C51.3742 35.5743 51.5749 35.145 51.6682 34.613C51.7616 34.081 51.8082 33.423 51.8082 32.639Z" fill="#8A7E32"/>
<defs>
<linearGradient id="paint0_linear_3067_990" x1="19.6" y1="29.0371" x2="19.6" y2="32.9071" gradientUnits="userSpaceOnUse">
<stop stop-color="#805D43"/>
<stop offset="1" stop-color="#DAB994"/>
</linearGradient>
<linearGradient id="paint1_linear_3067_990" x1="19.6002" y1="26.708" x2="19.6002" y2="40.5415" gradientUnits="userSpaceOnUse">
<stop stop-color="#805D43"/>
<stop offset="1" stop-color="#DAB994"/>
</linearGradient>
</defs>
</svg>
