<svg width="40" height="40" viewBox="0 0 40 40" fill="none" xmlns="http://www.w3.org/2000/svg">
<path d="M23.1833 4.85L19.7167 8.33333H23.3333C26.8695 8.33333 30.2609 9.73809 32.7614 12.2386C35.2619 14.7391 36.6667 18.1304 36.6667 21.6667H33.3333C33.3333 19.0145 32.2798 16.471 30.4044 14.5956C28.529 12.7202 25.9855 11.6667 23.3333 11.6667H19.7167L23.2 15.15L20.8333 17.5L13.3333 10L15.6833 7.65L20.8333 2.5L23.1833 4.85ZM3.33333 20V36.6667H30V20H3.33333ZM6.66666 30.9333V25.75C7.66852 25.1681 8.50145 24.3352 9.08333 23.3333H24.25C24.8319 24.3352 25.6648 25.1681 26.6667 25.75V30.9333C25.6791 31.5152 24.8582 32.3418 24.2833 33.3333H9.08333C8.49916 32.3376 7.66643 31.5106 6.66666 30.9333ZM16.6667 31.6667C18.0467 31.6667 19.1667 30.175 19.1667 28.3333C19.1667 26.4917 18.0467 25 16.6667 25C15.2867 25 14.1667 26.4917 14.1667 28.3333C14.1667 30.175 15.2867 31.6667 16.6667 31.6667Z" fill="url(#paint0_linear_525_923)"/>
<defs>
<linearGradient id="paint0_linear_525_923" x1="20" y1="2.5" x2="20" y2="36.6667" gradientUnits="userSpaceOnUse">
<stop stop-color="#E6D253"/>
<stop offset="1" stop-color="#1A5843"/>
</linearGradient>
</defs>
</svg>
