<svg width="34" height="28" viewBox="0 0 34 28" fill="none" xmlns="http://www.w3.org/2000/svg">
<path d="M27.8858 17.3692C26.5371 18.1891 24.9881 18.6202 23.4097 18.6152C22.0875 18.6047 20.7801 18.3343 19.5622 17.8192C18.6236 19.1444 18.1212 20.7291 18.1251 22.353V26.5C18.1254 26.6542 18.094 26.8069 18.0329 26.9485C17.9717 27.09 17.8821 27.2175 17.7696 27.3231C17.6572 27.4286 17.5242 27.5098 17.379 27.5617C17.2337 27.6137 17.0794 27.6352 16.9255 27.625C16.6364 27.5998 16.3674 27.4663 16.1726 27.2511C15.9778 27.0359 15.8715 26.7551 15.8751 26.4648V24.7155L10.4441 19.2845C9.63678 19.5857 8.78296 19.7433 7.9213 19.75C6.73507 19.7531 5.57103 19.4285 4.55755 18.812C1.49333 16.9502 -0.156198 12.6653 0.163021 7.34547C0.179094 7.07024 0.295668 6.8105 0.490612 6.61556C0.685557 6.42062 0.945297 6.30404 1.22052 6.28797C6.54037 5.97437 10.8252 7.61828 12.6815 10.6825C13.4108 11.8836 13.7292 13.2894 13.5885 14.6875C13.5797 14.7958 13.5398 14.8993 13.4735 14.9854C13.4072 15.0715 13.3174 15.1366 13.2149 15.1727C13.1124 15.2089 13.0017 15.2145 12.896 15.1891C12.7904 15.1636 12.6943 15.1081 12.6196 15.0292L9.91958 12.2027C9.70689 12.0006 9.42367 11.8896 9.13031 11.8933C8.83696 11.8971 8.55667 12.0153 8.34922 12.2228C8.14177 12.4302 8.02356 12.7105 8.01981 13.0039C8.01605 13.2972 8.12704 13.5804 8.32911 13.7931L15.906 21.5627C15.9144 21.453 15.9243 21.3433 15.9355 21.235C16.1815 19.1492 17.1019 17.2007 18.5568 15.6859L25.671 8.16812C25.8821 7.95721 26.0008 7.67109 26.0009 7.37268C26.001 7.07428 25.8826 6.78805 25.6717 6.57695C25.4608 6.36586 25.1747 6.24719 24.8763 6.24706C24.5778 6.24693 24.2916 6.36534 24.0805 6.57625L17.1899 13.8634C17.1209 13.9365 17.0336 13.9897 16.9371 14.0177C16.8406 14.0456 16.7384 14.0471 16.6411 14.0221C16.5437 13.9972 16.4549 13.9466 16.3837 13.8756C16.3126 13.8047 16.2617 13.716 16.2365 13.6187C15.5699 11.1606 15.8638 8.71375 17.1365 6.61281C19.648 2.46719 25.4924 0.248124 32.7711 0.675624C33.0464 0.691696 33.3061 0.808271 33.5011 1.00322C33.696 1.19816 33.8126 1.4579 33.8286 1.73312C34.2505 9.01328 32.0315 14.8577 27.8858 17.3692Z" fill="#216E54"/>
</svg>
